<svg width="121" height="83" viewBox="0 0 121 83" fill="none" xmlns="http://www.w3.org/2000/svg">
<g clip-path="url(#clip0_14_313)">
<path d="M7.5988 42.6968H0V45.6112H7.5988V42.6968Z" fill="white"/>
<path d="M17.646 42.6982H10.0459V45.6125H17.646V42.6982Z" fill="white"/>
<path d="M99.2175 28.2869H69.5806V36.0367H99.2175V28.2869Z" fill="white"/>
<path d="M120.793 38.8962H113.214V64.2085H120.793V38.8962Z" fill="white"/>
<path d="M60.488 49.9232C68.5345 49.9232 74.7014 55.7452 74.7014 62.8698L110.867 62.8498V37.5629H102.916V46.8508C98.3166 46.879 95.504 49.6782 95.7487 54.6863V56.9809H94.4688V54.6461C94.3147 52.615 93.4291 50.7077 91.975 49.2751C90.5208 47.8425 88.596 46.981 86.5547 46.8492C84.5133 46.7174 82.4929 47.3241 80.8651 48.5577C79.2373 49.7914 78.1118 51.5688 77.6955 53.5631V55.0785C76.4564 52.7971 74.7564 50.7959 72.7024 49.2008C70.6484 47.6058 68.2849 46.4515 65.7609 45.8107V28.9429H63.1554L63.6192 27.3458L62.5746 27.0687L63.2333 25.2387L62.0731 24.4663L62.7641 22.0874L61.7975 21.0874L62.1027 18.1315H59.1328L59.4353 21.0847L58.4686 22.0847L59.1637 24.4636L58.0061 25.236L58.6663 27.066L57.6189 27.3432L58.0814 28.9362H55.5646L55.6076 45.7384C51.2791 46.7276 47.4413 49.209 44.7728 52.7438C43.7591 45.6165 37.5383 39.2068 32.1431 36.6914H53.1339V28.9362H18.2617V40.5964C30.2877 40.5964 36.3364 48.0329 36.0339 57.0491L19.3372 57.0652V46.8549H8.92854C2.62578 46.9486 0.0336914 51.3382 0.0336914 54.2004V62.9247L46.3108 62.8511C46.3108 56.0344 52.1847 49.9245 60.4893 49.9245M100.501 53.5484C100.499 53.3032 100.548 53.0601 100.646 52.8353C100.745 52.6104 100.89 52.4087 101.072 52.2435C101.254 52.0783 101.469 51.9533 101.703 51.8766C101.937 51.8 102.184 51.7734 102.429 51.7987H103.579V57.0451H100.5L100.501 53.5484ZM84.6087 53.1803C84.6428 52.8325 84.8058 52.5098 85.0657 52.2751C85.3257 52.0404 85.664 51.9104 86.0149 51.9104C86.3659 51.9104 86.7042 52.0404 86.9642 52.2751C87.2241 52.5098 87.387 52.8325 87.4212 53.1803V57.0558H84.61V53.1789L84.6087 53.1803ZM11.046 57.0384H8.36521V53.5457C8.35974 53.3011 8.40657 53.0581 8.5026 52.8329C8.59863 52.6077 8.74166 52.4054 8.92221 52.2394C9.10275 52.0735 9.31668 51.9476 9.54979 51.8702C9.78291 51.7929 10.0299 51.7658 10.2743 51.7907H11.046V57.0384Z" fill="white"/>
<path d="M13.0639 69.6022L3.42959 76.1177V69.5942H0.0698242L0.0778909 82.5328H3.44841V80.0321L8.11229 76.9236L13.6877 82.5288H18.3395L10.8294 75.032L18.9176 69.6116L13.0639 69.6022Z" fill="white"/>
<path d="M24.8962 69.6116H21.6548V82.5207H24.8962V69.6116Z" fill="white"/>
<path d="M34.6506 69.6557C33.8714 69.611 33.0928 69.7518 32.3792 70.0666C31.6656 70.3813 31.0376 70.861 30.5474 71.4657V69.6116H27.3032V82.5341H30.5474V74.7696C30.6669 73.9344 31.0823 73.1693 31.7186 72.6123C32.3549 72.0553 33.1702 71.7431 34.0174 71.7321C34.4646 71.7322 34.9073 71.8205 35.3201 71.9919C35.7328 72.1633 36.1074 72.4143 36.4222 72.7306C36.7371 73.0468 36.9859 73.422 37.1544 73.8344C37.3229 74.2469 37.4078 74.6885 37.404 75.1337L37.3489 82.5314H40.5003V75.4149C40.5003 74.6528 40.3484 73.8983 40.0534 73.1951C39.7583 72.492 39.326 71.8542 38.7815 71.3187C38.2369 70.7832 37.591 70.3607 36.8812 70.0757C36.1714 69.7907 35.4118 69.6488 34.6466 69.6584" fill="white"/>
<path d="M59.5601 73.2997L70.7432 73.3359C69.5545 75.1319 67.934 76.6037 66.0289 77.6177C64.1238 78.6316 61.9945 79.1555 59.8344 79.1418C57.0128 79.084 54.2847 78.124 52.053 76.4038C49.8214 74.6836 48.2045 72.2943 47.4413 69.5888L43.1162 69.5968C43.8601 72.9112 45.5763 75.9307 48.0469 78.2721C50.5175 80.6134 53.6311 82.1709 56.9924 82.7468C60.3537 83.3228 63.811 82.8912 66.9255 81.5069C70.04 80.1225 72.6711 77.8479 74.4848 74.9718C74.8235 74.4468 75.0365 73.8514 75.1073 73.2314V69.6035H59.5964L59.5601 73.2997Z" fill="white"/>
<path d="M99.8895 69.6022C99.1906 69.6017 98.4985 69.7383 97.8527 70.0043C97.2068 70.2703 96.62 70.6604 96.1256 71.1524C95.6313 71.6444 95.2392 72.2285 94.9718 72.8715C94.7043 73.5144 94.5667 74.2036 94.5669 74.8995V77.3399C94.5669 78.0358 94.7045 78.7248 94.972 79.3676C95.2394 80.0105 95.6313 80.5946 96.1255 81.0866C96.6196 81.5787 97.2062 81.9689 97.8518 82.2352C98.4974 82.5015 99.1894 82.6386 99.8882 82.6386C100.587 82.6386 101.279 82.5015 101.925 82.2352C102.57 81.9689 103.157 81.5787 103.651 81.0866C104.145 80.5946 104.537 80.0105 104.804 79.3676C105.072 78.7248 105.21 78.0358 105.21 77.3399V74.8995C105.21 74.2038 105.072 73.5149 104.805 72.8721C104.538 72.2293 104.146 71.6453 103.652 71.1533C103.158 70.6614 102.571 70.2712 101.926 70.0051C101.28 69.7389 100.588 69.602 99.8895 69.6022ZM102.158 77.7683C102.165 78.0698 102.112 78.3697 102.001 78.6504C101.89 78.931 101.724 79.1868 101.513 79.4026C101.301 79.6184 101.048 79.7899 100.769 79.907C100.49 80.0241 100.19 80.0844 99.8875 80.0844C99.5847 80.0844 99.2849 80.0241 99.0058 79.907C98.7267 79.7899 98.474 79.6184 98.2624 79.4026C98.0509 79.1868 97.8849 78.931 97.7741 78.6504C97.6633 78.3697 97.6101 78.0698 97.6174 77.7683V74.4724C97.6101 74.171 97.6633 73.8711 97.7741 73.5904C97.8849 73.3097 98.0509 73.054 98.2624 72.8382C98.474 72.6223 98.7267 72.4508 99.0058 72.3338C99.2849 72.2167 99.5847 72.1563 99.8875 72.1563C100.19 72.1563 100.49 72.2167 100.769 72.3338C101.048 72.4508 101.301 72.6223 101.513 72.8382C101.724 73.054 101.89 73.3097 102.001 73.5904C102.112 73.8711 102.165 74.171 102.158 74.4724V77.7683Z" fill="white"/>
<path d="M85.5038 69.6477H78.9819V82.5328H85.5038C86.1971 82.5652 86.8896 82.4559 87.5388 82.2116C88.1879 81.9673 88.7799 81.5931 89.2783 81.1122C89.7766 80.6313 90.1708 80.0538 90.4363 79.4154C90.7019 78.777 90.8333 78.0911 90.8225 77.4002V74.953C90.8232 73.5474 90.2633 72.1989 89.266 71.2041C88.2687 70.2093 86.9155 69.6495 85.5038 69.6477ZM87.7719 77.8232C87.7719 78.4224 87.533 78.9971 87.1078 79.4211C86.6825 79.845 86.1056 80.0836 85.5038 80.0843H82.171V72.2649H85.5052C86.106 72.2649 86.6823 72.5023 87.1075 72.9249C87.5328 73.3476 87.7722 73.921 87.7733 74.5193L87.7719 77.8232Z" fill="white"/>
<path d="M116.885 69.554C116.375 69.5523 115.871 69.6544 115.402 69.854C114.934 70.0536 114.511 70.3465 114.161 70.7147C113.823 70.3618 113.419 70.0789 112.972 69.8824C112.524 69.686 112.042 69.5798 111.552 69.5701C110.708 69.6272 109.911 69.9816 109.305 70.5701V69.6009H106.168V82.5274H109.459V73.1565C109.459 72.986 109.493 72.8172 109.558 72.6598C109.624 72.5024 109.72 72.3595 109.842 72.2393C109.963 72.1191 110.107 72.024 110.265 71.9594C110.424 71.8949 110.593 71.8622 110.765 71.8633C110.934 71.8585 111.102 71.8892 111.259 71.9532C111.415 72.0173 111.557 72.1134 111.674 72.2353C111.791 72.3572 111.881 72.5021 111.938 72.6608C111.995 72.8195 112.018 72.9884 112.006 73.1565V82.5274H115.2V73.1565C115.2 72.9869 115.233 72.8189 115.298 72.6621C115.363 72.5053 115.458 72.3628 115.578 72.2427C115.698 72.1226 115.841 72.0273 115.998 71.9622C116.156 71.8971 116.324 71.8635 116.495 71.8633C116.664 71.8579 116.833 71.8882 116.99 71.952C117.147 72.0158 117.289 72.1118 117.406 72.2338C117.524 72.3557 117.614 72.5009 117.672 72.6598C117.729 72.8188 117.752 72.988 117.74 73.1565V82.5274H120.981L120.995 73.6585C120.999 73.1188 120.895 72.5837 120.69 72.0842C120.484 71.5847 120.181 71.1308 119.798 70.749C119.415 70.3671 118.96 70.0648 118.458 69.8597C117.957 69.6545 117.42 69.5506 116.878 69.554" fill="white"/>
<path d="M51.3414 11.6548C52.2798 10.4371 53.5916 9.55766 55.0777 9.15008C55.0777 9.15008 50.9932 12.8449 53.5894 15.6187C53.5894 15.6187 54.7335 12.4433 56.1088 12.3402C56.1088 12.3402 54.4054 16.9855 57.4977 17.9267C57.4977 17.9267 56.6063 12.8476 60.2013 12.296C63.8031 12.8463 62.9077 17.9267 62.9077 17.9267C65.9999 16.9896 64.2979 12.3402 64.2979 12.3402C65.6705 12.4433 66.8133 15.6187 66.8133 15.6187C69.4162 12.8449 65.3344 9.15008 65.3344 9.15008C66.8209 9.55848 68.1333 10.4377 69.0733 11.6548C70.5065 7.44858 65.7741 6.1835 65.7741 6.1835C66.8617 6.02195 67.9731 6.18257 68.9698 6.64535C68.8609 4.02416 64.2253 4.07637 64.2253 4.07637C64.8087 2.97327 67.3013 3.48466 67.3013 3.48466C64.962 0.0950482 61.5202 2.84342 61.5202 2.84342C61.4395 1.76849 60.9716 0.758747 60.2027 0C59.4367 0.759303 58.9705 1.76757 58.8892 2.84074C58.8892 2.84074 55.4487 0.0937096 53.1094 3.48064C53.1094 3.48064 55.6047 2.96926 56.1814 4.07235C56.1814 4.07235 51.5471 4.02148 51.4369 6.64134C52.435 6.17845 53.5477 6.01784 54.6367 6.17948C54.6367 6.17948 49.9029 7.4459 51.3414 11.6508" fill="white"/>
</g>
<defs>
<clipPath id="clip0_14_313">
<rect width="121" height="83" fill="white"/>
</clipPath>
</defs>
</svg>
