<svg width="37" height="37" viewBox="0 0 37 37" fill="none" xmlns="http://www.w3.org/2000/svg">
<path d="M21.3395 8.13728C21.3395 9.77031 20.0156 11.0941 18.3826 11.0941C16.7497 11.0941 15.4258 9.77031 15.4258 8.13728C15.4258 6.50426 16.7497 5.18042 18.3826 5.18042C20.0156 5.18042 21.3395 6.50426 21.3395 8.13728Z" fill="white"/>
<path d="M6.65638 13.4134C6.31211 14.4462 6.87028 15.5625 7.90309 15.9068C8.24863 16.0215 8.59695 16.1283 8.94564 16.2328C9.58363 16.4242 10.4762 16.6793 11.498 16.9347C12.6445 17.2214 14.0084 17.5228 15.383 17.7278C15.2923 19.4875 15.072 20.7501 14.8671 21.5879L10.7058 29.9106C10.2189 30.8844 10.6136 32.0685 11.5874 32.5554C12.5611 33.0423 13.7452 32.6475 14.2321 31.6739L18.3827 23.3726L22.5333 31.6739C23.0202 32.6475 24.2041 33.0423 25.1779 32.5554C26.1517 32.0685 26.5463 30.8844 26.0594 29.9106L21.8982 21.5879C21.6933 20.7501 21.473 19.4875 21.3823 17.7278C22.757 17.5228 24.1207 17.2214 25.2672 16.9347C26.2891 16.6793 27.1817 16.4242 27.8196 16.2328C28.1659 16.1289 28.5117 16.0227 28.8549 15.9092C29.8673 15.5732 30.4468 14.427 30.109 13.4134C29.7648 12.3806 28.6485 11.8225 27.6157 12.1665C27.3078 12.2684 26.9976 12.3634 26.6869 12.4566C26.0928 12.6348 25.2605 12.8726 24.3112 13.1099C22.3677 13.5958 20.0994 14.0367 18.3827 14.0367C16.6659 14.0367 14.3977 13.5958 12.4542 13.1099C11.5048 12.8726 10.6725 12.6348 10.0785 12.4566C9.77163 12.3645 9.4654 12.2701 9.16092 12.1703C8.13684 11.8316 6.99961 12.3836 6.65638 13.4134Z" fill="white"/>
</svg>
