<svg width="19" height="24" viewBox="0 0 19 24" fill="none" xmlns="http://www.w3.org/2000/svg">
<path d="M13.3267 15.7323C13.3267 15.9817 13.2277 16.2208 13.0513 16.3972C12.875 16.5735 12.6359 16.6725 12.3865 16.6725H10.5022V18.5569C10.5022 18.8067 10.4029 19.0464 10.2262 19.2231C10.0495 19.3998 9.8099 19.499 9.56002 19.499C9.31015 19.499 9.0705 19.3998 8.89381 19.2231C8.71712 19.0464 8.61786 18.8067 8.61786 18.5569V16.6725H6.73351C6.48363 16.6725 6.24399 16.5733 6.0673 16.3966C5.89061 16.2199 5.79134 15.9802 5.79134 15.7304C5.79134 15.4805 5.89061 15.2408 6.0673 15.0641C6.24399 14.8874 6.48363 14.7882 6.73351 14.7882H8.61786V12.9038C8.61786 12.654 8.71712 12.4143 8.89381 12.2376C9.0705 12.0609 9.31015 11.9617 9.56002 11.9617C9.8099 11.9617 10.0495 12.0609 10.2262 12.2376C10.4029 12.4143 10.5022 12.654 10.5022 12.9038V14.7882H12.3865C12.5103 14.7882 12.6329 14.8126 12.7472 14.8601C12.8616 14.9076 12.9654 14.9772 13.0528 15.065C13.1401 15.1527 13.2093 15.2568 13.2563 15.3713C13.3033 15.4859 13.3272 15.6085 13.3267 15.7323ZM18.9688 10.5454V18.5529C18.9673 19.7994 18.4714 20.9945 17.5899 21.8759C16.7085 22.7574 15.5135 23.2532 14.2669 23.2548H4.86306C3.61668 23.2533 2.4218 22.7575 1.54038 21.8763C0.658971 20.995 0.16297 19.8003 0.161133 18.5539V5.38731C0.162707 4.14076 0.658593 2.94573 1.54003 2.06428C2.42147 1.18284 3.61651 0.686958 4.86306 0.685383H9.10878C9.97363 0.683261 10.8303 0.852552 11.6294 1.18347C12.4284 1.51439 13.154 2.00038 13.7641 2.61336L17.0369 5.89211C17.6509 6.50129 18.138 7.22627 18.4698 8.02504C18.8016 8.82382 18.9705 9.6805 18.9688 10.5454ZM12.4351 3.94331C12.1381 3.65626 11.8047 3.40952 11.4434 3.20941V7.26867C11.4434 7.51803 11.5424 7.75717 11.7187 7.93349C11.8951 8.10981 12.1342 8.20886 12.3836 8.20886H16.4458C16.2456 7.84732 15.9985 7.51384 15.7109 7.2171L12.4351 3.94331ZM17.0895 10.5464C17.0895 10.3917 17.0597 10.243 17.0448 10.0902H12.3836C11.6352 10.0902 10.9176 9.79296 10.3884 9.26381C9.85928 8.73467 9.56201 8.017 9.56201 7.26867V2.60741C9.40928 2.59353 9.26448 2.56278 9.1058 2.56278H4.86306C4.11491 2.56383 3.3978 2.86198 2.86943 3.39165C2.34106 3.92132 2.04468 4.63916 2.04547 5.38731V18.5539C2.04547 19.3022 2.34274 20.0199 2.87189 20.549C3.40103 21.0782 4.1187 21.3754 4.86702 21.3754H14.2709C15.0192 21.3754 15.7369 21.0782 16.266 20.549C16.7952 20.0199 17.0924 19.3022 17.0924 18.5539L17.0895 10.5464Z" fill="white"/>
</svg>
