<svg width="20" height="24" viewBox="0 0 20 24" fill="none" xmlns="http://www.w3.org/2000/svg">
<path d="M17.3372 6.07925L14.0226 2.76359C13.4063 2.14436 12.6734 1.65343 11.8662 1.3192C11.059 0.984972 10.1935 0.814067 9.31985 0.816368H5.03662C3.77693 0.816659 2.56892 1.3172 1.67818 2.20793C0.78745 3.09867 0.286912 4.30668 0.286621 5.56636V18.8642C0.286912 20.1238 0.78745 21.3319 1.67818 22.2226C2.56892 23.1133 3.77693 23.6139 5.03662 23.6142H14.5355C15.7954 23.6142 17.0037 23.1137 17.8947 22.223C18.7856 21.3322 19.2863 20.124 19.2866 18.8642V10.7809C19.2885 9.9073 19.1172 9.04196 18.7825 8.23495C18.4479 7.42794 17.9567 6.69525 17.3372 6.07925ZM15.9973 7.41914C16.296 7.71659 16.5544 8.05185 16.7661 8.41636H12.6454C12.3936 8.41578 12.1523 8.31551 11.9743 8.13747C11.7963 7.95944 11.696 7.71814 11.6954 7.46636V3.34238C12.0615 3.55373 12.3982 3.8122 12.697 4.11116L16.0072 7.42792L15.9973 7.41914ZM17.3844 18.8653C17.383 19.6207 17.0822 20.3447 16.5481 20.8789C16.0139 21.4131 15.2898 21.7138 14.5344 21.7153H5.03662C4.28101 21.7138 3.55678 21.4129 3.02258 20.8785C2.48839 20.3441 2.18778 19.6198 2.18662 18.8642V5.56636C2.18807 4.81094 2.4888 4.08688 3.02297 3.55272C3.55713 3.01855 4.2812 2.71782 5.03662 2.71637H9.31985C9.47531 2.71309 9.63082 2.71933 9.78552 2.73504V7.46527C9.78697 8.22069 10.0877 8.94475 10.6219 9.47892C11.156 10.0131 11.8801 10.3138 12.6355 10.3153H17.3657C17.3817 10.4699 17.3879 10.6255 17.3844 10.7809V18.8653ZM5.11899 13.1653H4.08662C3.83484 13.1658 3.59354 13.2661 3.41551 13.4442C3.23747 13.6222 3.1372 13.8635 3.13662 14.1153V18.3326C3.13618 18.41 3.15111 18.4868 3.18054 18.5584C3.20997 18.63 3.25331 18.6951 3.30806 18.7498C3.36281 18.8046 3.42788 18.8479 3.4995 18.8773C3.57112 18.9068 3.64786 18.9217 3.72529 18.9213C3.88115 18.9204 4.03038 18.8581 4.14059 18.7479C4.2508 18.6377 4.31309 18.4885 4.31396 18.3326V17.1739H5.1124C5.64398 17.1739 6.15379 16.9628 6.52968 16.5869C6.90556 16.211 7.11673 15.7012 7.11673 15.1696C7.11673 14.638 6.90556 14.1282 6.52968 13.7523C6.15379 13.3764 5.64398 13.1653 5.1124 13.1653H5.11899ZM5.11899 15.9867H4.33373V14.3525H5.13217C5.34888 14.3525 5.55671 14.4386 5.70995 14.5918C5.86319 14.745 5.94928 14.9529 5.94928 15.1696C5.94928 15.3863 5.86319 15.5941 5.70995 15.7474C5.55671 15.9006 5.34888 15.9867 5.13217 15.9867H5.11899ZM16.4509 13.7638C16.4513 13.8412 16.4364 13.918 16.407 13.9896C16.3775 14.0612 16.3342 14.1263 16.2794 14.181C16.2247 14.2358 16.1596 14.2791 16.088 14.3086C16.0164 14.338 15.9396 14.3529 15.8622 14.3525H14.2598V15.4354H15.4427C15.5201 15.4349 15.5969 15.4499 15.6685 15.4793C15.7401 15.5087 15.8052 15.5521 15.8599 15.6068C15.9147 15.6616 15.958 15.7266 15.9874 15.7983C16.0169 15.8699 16.0318 15.9466 16.0313 16.024C16.0305 16.1799 15.9682 16.3291 15.858 16.4393C15.7478 16.5496 15.5985 16.6119 15.4427 16.6127H14.2598V18.3227C14.2603 18.4001 14.2454 18.4769 14.2159 18.5485C14.1865 18.6201 14.1432 18.6852 14.0884 18.7399C14.0337 18.7947 13.9686 18.838 13.897 18.8675C13.8253 18.8969 13.7486 18.9118 13.6712 18.9114C13.5153 18.9105 13.3661 18.8482 13.2559 18.738C13.1457 18.6278 13.0834 18.4786 13.0825 18.3227V13.7539C13.0821 13.6765 13.097 13.5998 13.1264 13.5281C13.1559 13.4565 13.1992 13.3915 13.254 13.3367C13.3087 13.282 13.3738 13.2386 13.4454 13.2092C13.517 13.1798 13.5938 13.1648 13.6712 13.1653H15.8677C15.9451 13.1648 16.0219 13.1798 16.0935 13.2092C16.1651 13.2386 16.2302 13.282 16.2849 13.3367C16.3397 13.3915 16.383 13.4565 16.4125 13.5281C16.4419 13.5998 16.4568 13.6765 16.4564 13.7539L16.4509 13.7638ZM9.86789 13.1751H8.83552C8.58374 13.1757 8.34244 13.276 8.16441 13.454C7.98637 13.6321 7.8861 13.8734 7.88552 14.1251V18.3425C7.88643 18.417 7.90273 18.4904 7.93339 18.5583C7.96405 18.6262 8.00841 18.687 8.06369 18.7369C8.11897 18.7868 8.18397 18.8248 8.25461 18.8484C8.32525 18.872 8.40001 18.8807 8.47419 18.874H9.8613C10.3963 18.8767 10.9106 18.6673 11.2916 18.2916C11.6726 17.916 11.8893 17.4047 11.8942 16.8697V15.1784C11.8893 14.6434 11.6726 14.1321 11.2916 13.7565C10.9106 13.3808 10.3963 13.1714 9.8613 13.174L9.86789 13.1751ZM10.7135 16.8708C10.7072 17.0905 10.6152 17.299 10.4572 17.4517C10.2992 17.6044 10.0876 17.6892 9.86789 17.6879H9.07933V14.3624H9.87777C10.0975 14.3611 10.309 14.4459 10.4671 14.5986C10.6251 14.7513 10.7171 14.9598 10.7234 15.1795V16.8708H10.7135Z" fill="white"/>
</svg>
