<svg width="37" height="37" viewBox="0 0 37 37" fill="none" xmlns="http://www.w3.org/2000/svg">
<path d="M29.3987 10.3202V10.4202H29.4987H33.8922V28.2942C33.8922 30.7205 31.925 32.6877 29.4987 32.6877H11.5247C9.09844 32.6877 7.13125 30.7205 7.13125 28.2942V8.17347H29.3987V10.3202ZM9.27799 10.2202H9.17799V10.3202V28.2942C9.17799 29.5907 10.2282 30.6409 11.5247 30.6409H29.4987C30.7953 30.6409 31.8454 29.5907 31.8454 28.2942V12.567V12.467H31.7454H29.4987H29.3987V12.567V28.1942H27.352V10.3202V10.2202H27.252H9.27799ZM16.0182 17.1604H16.1182V17.0604V14.8137V14.7137H16.0182H13.7715H13.6715V14.8137V17.0604V17.1604H13.7715H16.0182ZM11.6247 12.667H18.165V19.2072H11.6247V12.667ZM24.9052 21.6539V23.7007H11.6247V21.6539H24.9052ZM24.9052 26.1474V28.1942H11.6247V26.1474H24.9052Z" fill="white" stroke="white" stroke-width="0.2"/>
</svg>
