<?xml version="1.0" encoding="UTF-8"?>
<svg id="Layer_1" data-name="Layer 1" xmlns="http://www.w3.org/2000/svg" viewBox="0 0 53.74 16">
  <defs>
    <style>
      .cls-1 {
        fill: #006975;
      }
    </style>
  </defs>
  <path class="cls-1" d="m44.5,1.34h9.24v1.51h-7.43v4.48h6.46v1.34h-6.46v6.01h-1.81V1.34Zm-7.56,13.62c-1.19,0-2.2-.2-3.03-.59-.82-.39-1.43-.91-1.83-1.55-.39-.6-.6-1.3-.6-2.01h1.81c0,.48.15.94.44,1.32.32.43.76.76,1.27.97.61.25,1.27.38,1.93.36,1.19,0,2.1-.21,2.73-.63.63-.42.94-1.04.95-1.85,0-.72-.31-1.27-.94-1.63-.63-.36-1.52-.63-2.69-.8-.86-.13-1.71-.33-2.54-.6-.71-.24-1.35-.64-1.86-1.17-.5-.52-.75-1.19-.75-2.03-.01-.66.17-1.32.52-1.89.36-.55.91-1,1.66-1.32.75-.33,1.7-.49,2.86-.5,1.06,0,1.97.16,2.72.48.75.32,1.32.77,1.71,1.33.39.59.59,1.28.58,1.98h-1.82c0-.42-.12-.83-.38-1.18-.27-.37-.65-.65-1.09-.8-.55-.2-1.14-.3-1.73-.28-1.16,0-1.98.21-2.47.62-.24.19-.43.43-.55.7-.13.27-.19.57-.18.86,0,.67.32,1.19.96,1.54.64.35,1.62.61,2.93.78,1.44.22,2.61.62,3.53,1.2.91.58,1.37,1.48,1.37,2.71.02.76-.21,1.51-.66,2.14-.44.59-1.07,1.05-1.9,1.36-.83.32-1.81.47-2.94.47h0Zm-11.29-1.79c.44,0,.87-.1,1.25-.3.37-.2.68-.5.9-.85.22-.36.33-.56.33-1.01,0-.42-.11-.82-.33-1.18-.22-.35-.53-.65-.9-.85-.37-.2-.8-.31-1.22-.31h-4.57v4.5h4.55Zm-.52-5.84c.39,0,.78-.09,1.11-.29.34-.18.62-.45.81-.78.2-.33.3-.71.3-1.09,0-.39-.1-.95-.3-1.27-.19-.32-.47-.59-.81-.78-.33-.19-.71-.29-1.1-.29h-4.04v4.48h4.03Zm.08-5.99c.71-.01,1.41.14,2.04.44.59.28,1.08.71,1.41,1.24.35.53.51,1.34.51,2.02,0,.4-.08.79-.24,1.16-.15.36-.37.7-.65.98-.27.27-.59.49-.94.64.49.14.95.38,1.34.7.39.32.71.71.95,1.15.24.44.36.93.36,1.43,0,.78-.19,1.24-.58,1.82-.38.56-.92,1.01-1.55,1.3-.64.3-1.35.45-2.07.44h-6.52V1.34h5.94Z"/>
  <path class="cls-1" d="m12.9,11.12l-4.76,2.63c.15-.99.4-1.96.75-2.89.39-1.08.95-2.1,1.66-3.03.64-.84,1.44-1.56,2.35-2.12v5.41ZM8.05,2.2l4.02,2.22c-1.09.67-2.05,1.53-2.82,2.53-.52.71-.93,1.5-1.2,2.33V2.2Zm-1.59,7.09c-.27-.83-.68-1.62-1.2-2.33-.77-1-1.72-1.86-2.81-2.53l4.02-2.22v7.08Zm-4.85,1.84v-5.41c.91.56,1.71,1.28,2.35,2.12.71.92,1.27,1.94,1.66,3.03.35.94.6,1.91.75,2.89l-4.76-2.63ZM7.25,0L0,4v8l7.24,4,7.24-4V4L7.25,0Z"/>
</svg>