<?xml version="1.0" encoding="UTF-8"?>
<svg id="Layer_1" data-name="Layer 1" xmlns="http://www.w3.org/2000/svg" viewBox="0 0 49.89 49.89">
  <defs>
    <style>
      .cls-1 {
        fill: #fff;
      }

      .cls-2 {
        fill: none;
        stroke: #2ad03d;
        stroke-width: .75px;
      }
    </style>
  </defs>
  <path class="cls-1" d="m24.94,49.89c13.78,0,24.94-11.17,24.94-24.94S38.72,0,24.94,0,0,11.17,0,24.95s11.17,24.94,24.94,24.94"/>
  <path class="cls-2" d="m7.1,29.07h5.53s2.12-.28,2.12,1.75v8.02s-.18,1.57-1.57,1.57h-6.08"/>
  <path class="cls-2" d="m14.29,29.81h4.79l6.45,2.67h5.34s1.29.18,1.29,1.57-1.29,1.29-1.29,1.29h-6.26s-1.75.18-1.93,1.75"/>
  <path class="cls-2" d="m32.07,34.73l8.11-2.25s1.57-.6,2.12.82c.55,1.43-1.01,2.22-1.01,2.22l-11.98,6.26s-1.27,1.38-3.59.46-8.47-3.04-8.47-3.04l-2.16.09"/>
  <path class="cls-2" d="m17.6,27.96s-.09-10.59,6.91-12.16h6.26s8.75,1.29,7.09,15.66"/>
  <polyline class="cls-2" points="25.71 13.41 23.39 8.99 25.25 7.42 27.84 9.08 30.04 7.7 32.49 8.99 29.86 13.41"/>
  <path class="cls-2" d="m25.23,15.73s-1.92-.99-.33-2.16l3.06-.17s4.53-.37,2.59,2.32"/>
  <line class="cls-2" x1="24.64" y1="24.19" x2="30.96" y2="22.33"/>
  <polyline class="cls-2" points="24.07 26.57 27.39 25.77 27.39 19.41"/>
  <polyline class="cls-2" points="28.63 19.68 28.55 25.31 31.24 24.61"/>
  <line class="cls-2" x1="28.3" y1="26.93" x2="30.9" y2="26.33"/>
</svg>