<?xml version="1.0" encoding="UTF-8"?>
<svg id="Layer_1" data-name="Layer 1" xmlns="http://www.w3.org/2000/svg" viewBox="0 0 39.74 27.93">
  <defs>
    <style>
      .cls-1 {
        fill: #124734;
      }
    </style>
  </defs>
  <path class="cls-1" d="m2.71,15.39H0v-1.07h2.71v1.07Zm3.59-1.07h-2.71v1.07h2.71v-1.07Zm15.9-2.06h10.58v-2.83h-10.58v2.83Zm17.46.32h-2.7v9.26h2.7v-9.26Zm-24.57,9.25l-15.07.03v-3.19c0-1.05.84-2.65,2.9-2.69h3.39v3.74h5.44c.1-3.31-1.87-6.02-5.79-6.02v-4.27h11.36v2.84h-6.84c1.75.92,3.78,3.27,4.11,5.87.52-.95,2.08-2.25,3.53-2.56l-.02-6.15h.82s-.15-.58-.15-.58l.34-.1-.21-.67.38-.28-.23-.87.31-.37-.1-1.08h.97l-.1,1.08.32.37-.22.87.38.28-.21.67.34.1-.15.59h.85s0,6.17,0,6.17c1.7.51,3.15,1.77,3.89,3.39v-.55c.18-1.39,1.28-2.47,2.7-2.47,1.54,0,2.77,1.29,2.77,2.86v.85h.42v-.84c-.08-1.83.84-2.86,2.33-2.87v-3.4h2.59v9.25h-11.78c0-2.6-2.01-4.73-4.63-4.73s-4.62,2.24-4.62,4.73m17.65-2.12h1v-1.92h-.38c-.39,0-.6.24-.63.64v1.28Zm-5.18,0h.92v-1.42c0-.26-.21-.47-.46-.47s-.46.21-.46.47v1.42Zm-23.96-1.92h-.25c-.39,0-.6.24-.62.64v1.28h.87v-1.92Zm1.07,5.23l-3.44,2.38v-2.39H.03v4.74h1.21v-.92s1.66-1.14,1.66-1.14l1.99,2.05h1.66s-2.68-2.75-2.68-2.75l2.89-1.98h-2.09Zm2.43,4.73h1.16v-4.72h-1.16v4.72Zm4.4-4.71c-.53,0-1.12.17-1.47.66v-.68s-1.16,0-1.16,0v4.73h1.16v-2.84c.09-.62.61-1.11,1.24-1.11.67,0,1.22.55,1.21,1.24l-.02,2.71h1.13v-2.6c.01-1.17-.93-2.11-2.09-2.11m8.09,1.33h3.99c-.84,1.29-2.28,2.17-3.89,2.14-2.16-.05-3.94-1.58-4.43-3.5h-1.54c.51,2.66,3.01,4.91,5.96,4.91,2.21,0,4.12-1.12,5.24-2.94.19-.27.22-.64.22-.64v-1.33h-5.54v1.35Zm14.51.58v.89c0,1.07-.85,1.94-1.9,1.94s-1.9-.87-1.9-1.94v-.89c0-1.07.85-1.94,1.9-1.94s1.9.87,1.9,1.94m-1.09-.16c0-.46-.36-.83-.81-.83s-.81.37-.81.83v1.21c0,.46.36.83.81.83s.81-.37.81-.83v-1.21Zm-3.09.18v.89c0,1.07-.85,1.94-1.9,1.88h-2.33s0-4.71,0-4.71h2.33c1.05,0,1.9.87,1.9,1.94m-1.09-.16c0-.46-.36-.83-.81-.83h-1.19v2.86h1.19c.45,0,.81-.37.81-.83v-1.21Zm9.43-1.82c-.4,0-.71.16-.97.42-.2-.24-.59-.42-.93-.42-.32,0-.8.29-.8.36v-.35h-1.12v4.73h1.18v-3.43c0-.26.21-.47.46-.47s.47.21.44.47v3.43h1.14v-3.43c0-.26.21-.47.46-.47s.46.21.44.47v3.43h1.16v-3.25c0-.84-.65-1.5-1.47-1.5M16.61,4.26s.52-.73,1.33-.92c0,0-1.46,1.35-.53,2.37,0,0,.41-1.16.9-1.2,0,0-.61,1.7.5,2.04,0,0-.32-1.86.96-2.06,1.29.2.97,2.06.97,2.06,1.1-.35.5-2.04.5-2.04.49.04.9,1.2.9,1.2.93-1.01-.53-2.37-.53-2.37.81.18,1.33.92,1.33.92.51-1.54-1.18-2-1.18-2,.48-.14,1.14.17,1.14.17-.04-.96-1.69-.94-1.69-.94.21-.41,1.1-.22,1.1-.22-.84-1.24-2.06-.23-2.06-.23.03-.54-.47-1.04-.47-1.04,0,0-.49.5-.47,1.04,0,0-1.23-1.01-2.06.23,0,0,.89-.19,1.1.22,0,0-1.65-.02-1.69.94,0,0,.66-.31,1.14-.17,0,0-1.69.46-1.18,2"/>
</svg>